<svg xmlns="http://www.w3.org/2000/svg" viewBox="0 0 417.05 369"><defs><style>.cls-1{fill:#fff;}</style></defs><title>Aim_white_svg</title><g id="Layer_2" data-name="Layer 2"><g id="artboard_2" data-name="artboard 2"><g id="Aim_white"><path class="cls-1" d="M199.09,6c0-7.95-7.21-7.95-11.7,0L.22,340.2s-3,8.93,13.37,0l64.05-37.75,32.86-64.07L97,237.93l47.18-84.07,20.09-.65,34.79-62Z" transform="translate(0 0)"/><path class="cls-1" d="M16.32,369H127.49l21.87-16.4H276.93L300.62,369H402.07c6.86-.49,5.79-5,0-8.2l-69.25-38.58H83.14l-66.82,38.6C8.59,365.47,10.19,368.29,16.32,369Z" transform="translate(0 0)"/><path class="cls-1" d="M218,6C218-2,225.17-2,229.66,6L416.83,340.2s3,8.93-13.37,0l-64-37.75-32.86-64.07,13.47-.45-47.18-84.07-20.09-.65L218,91.19Z" transform="translate(0 0)"/></g></g></g></svg>