<svg xmlns="http://www.w3.org/2000/svg" viewBox="0 0 845.97 409.94"><defs><style>.cls-1{fill:#d1204e;}.cls-2{font-size:366.02px;font-family:Mashine-Regular, Mashine;letter-spacing:-0.1em;}.cls-2,.cls-3{fill:#fff;}</style></defs><title>Default_white_svg</title><g id="Layer_2" data-name="Layer 2"><g id="artboard_2" data-name="artboard 2"><g id="Default_white"><g id="Warning"><path class="cls-1" d="M208.48,57.4c0-5.36-4.87-5.36-7.89,0L74.32,282.87s-2,6,9,0l43.21-25.46,22.16-43.22-9.08-.31,31.82-56.71,13.56-.44,23.47-41.83Z"/><path class="cls-1" d="M85.19,302.3h75l14.75-11.07H261l16,11.07H345.4c4.63-.33,3.91-3.36,0-5.53l-46.71-26H130.26l-45.07,26C80,299.92,81.05,301.82,85.19,302.3Z"/><path class="cls-1" d="M221.2,57.4c0-5.36,4.87-5.36,7.9,0L355.36,282.87s2,6-9,0l-43.21-25.46L281,214.19l9.09-.31-31.83-56.71-13.56-.44L221.2,114.9Z"/></g><text class="cls-2" transform="translate(333.92 300.13)">FK</text><polygon class="cls-3" points="0 302.3 8.84 302.3 173.92 39.32 180.18 35.64 838.31 36.83 838.31 29.98 177.66 27.48 166.44 34.43 0 302.3"/></g></g></g></svg>