<svg xmlns="http://www.w3.org/2000/svg" viewBox="0 0 845.04 409.49"><defs><style>.cls-1{fill:#fff;}.cls-2{font-size:365.61px;font-family:Mashine-Regular, Mashine;letter-spacing:-0.1em;}</style></defs><title>opposite_color_dark_svg</title><g id="Layer_2" data-name="Layer 2"><g id="artboard_2" data-name="artboard 2"><g id="opposite_color_dark"><g id="Warning"><path class="cls-1" d="M208.25,57.34c0-5.35-4.86-5.35-7.88,0L74.24,282.56s-2,6,9,0l43.16-25.43L148.55,214l-9.08-.31L171.27,157l13.54-.44,23.44-41.79Z"/><path class="cls-1" d="M85.09,302H160l14.74-11.05h86l16,11.05H345c4.62-.33,3.9-3.36,0-5.53l-46.66-26H130.12l-45,26C79.88,299.59,81,301.49,85.09,302Z"/><path class="cls-1" d="M221,57.34c0-5.35,4.86-5.35,7.89,0L355,282.56s2,6-9,0L302.8,257.13,280.66,214l9.08-.31L258,157l-13.55-.44L221,114.77Z"/></g><text class="cls-2" transform="translate(333.55 299.8)">FK</text><polygon points="0 301.97 8.83 301.97 173.73 39.28 179.98 35.6 837.39 36.78 837.39 29.94 177.47 27.45 166.25 34.39 0 301.97"/></g></g></g></svg>